<?xml version="1.0" standalone="no"?>
<!DOCTYPE svg PUBLIC "-//W3C//DTD SVG 20010904//EN"
 "http://www.w3.org/TR/2001/REC-SVG-20010904/DTD/svg10.dtd">
<svg version="1.0" xmlns="http://www.w3.org/2000/svg"
 width="924.000000pt" height="924.000000pt" viewBox="0 0 924.000000 924.000000"
 preserveAspectRatio="xMidYMid meet">
<metadata>
Created by potrace 1.14, written by Peter Selinger 2001-2017
</metadata>
<g transform="translate(0.000000,924.000000) scale(0.100000,-0.100000)"
fill="#000000" stroke="none">
<path d="M3005 9229 c-163 -21 -284 -111 -390 -288 -23 -39 -126 -265 -230
-503 -103 -238 -195 -451 -205 -473 -35 -75 -102 -230 -104 -240 -1 -5 -7 -19
-13 -30 -6 -11 -54 -121 -107 -245 -54 -124 -106 -243 -116 -265 -53 -118
-239 -552 -242 -565 -2 -8 -6 -17 -9 -20 -11 -9 -108 -240 -101 -240 4 0 2 -4
-3 -8 -6 -4 -103 -218 -215 -477 -112 -258 -211 -481 -220 -495 -24 -37 -92
-214 -89 -234 0 -5 -3 -12 -8 -15 -5 -3 -19 -31 -32 -61 -13 -30 -31 -73 -41
-95 -57 -127 -363 -832 -364 -840 -2 -5 -12 -30 -24 -55 -50 -107 -130 -291
-134 -310 -2 -8 -6 -17 -9 -20 -12 -11 -109 -248 -118 -290 -17 -75 -13 -227
8 -300 22 -75 51 -140 63 -140 5 0 7 -4 3 -9 -3 -5 10 -25 28 -45 19 -20 32
-37 30 -39 -3 -4 49 -51 82 -75 37 -26 71 -46 78 -44 4 1 7 -2 7 -6 0 -12 50
-33 61 -27 5 4 9 1 9 -6 0 -7 3 -9 7 -6 3 4 11 3 18 -3 20 -17 87 -24 210 -24
74 1 131 6 150 14 17 7 35 14 42 16 27 5 93 38 93 47 0 4 4 6 9 3 5 -3 21 6
35 19 15 14 29 25 32 25 8 0 104 93 100 97 -2 2 11 19 29 38 29 33 82 125 76
134 -1 2 2 7 7 10 11 7 55 91 47 91 -3 0 1 10 10 23 8 12 16 32 18 42 2 11 10
34 17 50 45 103 56 132 65 165 1 3 9 22 18 42 10 21 17 43 17 51 0 7 4 17 9
22 5 6 11 19 13 30 1 11 6 22 9 25 5 5 59 135 64 155 3 12 10 31 47 120 16 39
30 78 31 88 1 9 4 17 8 17 7 0 22 44 23 65 1 6 4 12 7 15 6 5 80 188 83 205 1
6 8 20 14 33 7 12 10 27 7 32 -3 6 -2 10 4 10 6 0 14 12 17 28 4 15 18 50 30
78 13 29 21 54 18 57 -2 2 2 10 11 17 11 9 141 12 577 11 310 0 577 0 595 -1
l31 0 -85 -165 c-46 -91 -81 -169 -78 -175 3 -5 2 -10 -4 -10 -16 0 -104 -241
-150 -410 -27 -97 -68 -308 -75 -385 -4 -33 -10 -96 -15 -140 -8 -70 -13 -171
-15 -325 0 -59 12 -292 19 -355 3 -27 5 -60 5 -72 0 -12 9 -70 21 -130 11 -59
22 -121 25 -138 17 -99 101 -380 127 -430 6 -11 12 -27 14 -36 4 -24 109 -255
140 -308 15 -25 38 -66 51 -91 34 -64 133 -214 143 -218 5 -2 9 -9 9 -15 0 -6
17 -31 38 -56 20 -25 49 -62 64 -81 63 -85 240 -264 374 -379 68 -59 180 -141
192 -141 7 0 12 -4 12 -9 0 -22 292 -188 468 -265 122 -55 399 -149 412 -141
5 3 11 1 14 -4 6 -9 104 -35 176 -46 19 -3 70 -12 114 -20 142 -26 369 -41
634 -40 100 0 182 -4 182 -9 0 -5 6 -4 13 1 14 11 47 13 47 3 0 -4 7 -7 15 -7
8 0 12 4 9 9 -3 4 -1 8 5 8 5 0 13 -5 16 -10 4 -7 13 -7 24 0 12 6 22 5 31 -3
10 -9 11 -9 6 1 -8 14 10 17 19 2 4 -7 13 -7 24 0 12 6 22 5 31 -3 10 -9 11
-9 6 1 -8 14 10 17 19 2 4 -7 13 -7 24 0 12 6 22 5 31 -3 10 -9 11 -9 6 1 -8
14 10 17 19 2 4 -7 13 -7 24 0 12 6 22 5 31 -3 10 -9 11 -9 6 0 -8 15 10 18
19 3 4 -7 13 -7 24 0 12 6 22 5 31 -3 10 -9 11 -9 6 1 -8 14 10 17 19 2 4 -7
13 -7 24 0 12 6 22 5 31 -3 10 -9 11 -9 6 1 -8 14 10 17 19 2 4 -7 13 -7 24 0
12 6 22 5 31 -3 10 -9 11 -9 6 1 -9 14 10 17 19 2 4 -6 11 -7 17 -4 16 10 58
13 58 5 0 -4 7 -8 15 -8 8 0 12 4 9 9 -3 4 -1 8 5 8 5 0 13 -5 16 -10 4 -7 13
-6 26 1 14 7 24 7 33 0 7 -6 16 -8 19 -5 10 11 110 11 131 1 13 -6 16 -6 12 2
-4 6 -3 11 3 11 5 0 13 -5 16 -10 4 -7 13 -6 26 1 14 7 24 7 33 0 7 -6 16 -8
19 -5 8 8 117 12 117 4 0 -4 7 -7 15 -7 8 0 12 4 9 9 -3 4 -1 8 5 8 5 0 13 -5
16 -10 4 -7 13 -7 26 0 11 6 25 8 32 3 16 -10 47 -11 41 -1 -3 4 -1 8 5 8 5 0
13 -5 16 -10 4 -7 13 -7 24 0 12 6 22 5 31 -3 10 -9 11 -9 6 1 -8 14 10 17 19
2 4 -7 13 -7 24 0 12 6 22 5 31 -3 10 -9 11 -9 6 1 -8 14 10 17 19 2 4 -7 13
-7 24 0 12 6 22 5 31 -3 10 -9 11 -9 6 1 -8 14 10 17 19 2 4 -7 13 -7 24 0 12
6 22 5 31 -3 10 -9 11 -9 6 1 -8 14 10 17 19 2 4 -7 13 -7 24 0 12 6 22 5 31
-3 10 -9 11 -9 6 1 -8 14 10 17 19 2 4 -7 13 -7 24 0 12 6 22 5 31 -3 10 -9
11 -9 6 1 -8 14 10 17 19 2 4 -7 13 -7 24 0 12 6 22 5 31 -3 10 -9 11 -9 6 1
-8 14 10 17 19 2 4 -7 12 -7 24 0 19 9 52 7 73 -6 7 -4 8 -3 4 4 -4 7 -3 12 3
12 5 0 13 -5 16 -10 4 -6 13 -7 23 -2 22 11 174 8 192 -3 9 -5 11 -4 6 3 -4 7
-3 12 3 12 5 0 13 -5 16 -10 4 -6 13 -7 23 -2 9 5 53 8 97 7 63 -1 79 -5 77
-16 -2 -11 0 -11 10 1 8 9 30 15 58 15 25 0 48 3 51 8 3 4 20 9 37 10 18 1 32
6 32 11 0 4 7 6 15 2 8 -3 15 -1 15 4 0 5 20 19 45 31 25 13 64 42 87 65 23
24 46 40 52 37 5 -3 6 -1 3 4 -4 6 1 21 12 34 24 32 74 139 67 146 -2 3 0 17
5 32 18 46 12 160 -12 236 -13 39 -22 73 -21 78 1 4 -2 7 -7 7 -5 0 -13 9 -16
20 -4 11 -18 32 -31 45 -14 14 -22 25 -18 25 4 0 -9 13 -29 29 -20 15 -33 32
-29 36 4 5 2 5 -4 2 -6 -4 -23 4 -38 18 -14 13 -26 22 -26 19 0 -2 -13 2 -29
11 -80 41 -133 45 -520 46 -299 1 -371 4 -358 14 9 6 14 14 11 18 -3 3 7 13
23 22 15 9 39 31 53 49 36 47 102 125 128 152 12 13 22 26 22 29 0 14 38 54
45 47 3 -4 5 -2 3 3 -5 16 43 86 54 79 6 -4 8 -2 5 4 -8 12 2 44 12 37 4 -2 8
1 8 8 0 18 44 87 55 87 5 0 6 5 3 10 -3 6 2 22 13 38 11 15 23 37 26 50 4 12
12 19 18 16 6 -4 8 -3 5 3 -8 13 37 105 48 96 4 -5 5 -2 1 4 -4 7 -1 23 6 35
6 13 13 32 15 43 2 11 8 21 13 23 6 2 10 9 10 16 0 7 16 53 35 102 19 49 35
97 35 106 0 10 4 18 9 18 5 0 8 6 8 12 -1 7 2 30 7 50 6 28 12 35 24 31 13 -4
14 -2 4 4 -13 10 -9 63 6 87 3 6 7 16 7 21 3 45 19 104 26 99 5 -3 9 0 9 5 0
6 -4 11 -9 11 -6 0 -6 13 0 33 6 17 12 50 15 72 18 163 21 191 17 198 -2 4 0
7 5 7 4 0 7 21 5 46 -2 25 0 43 4 41 13 -8 3 445 -11 523 -3 14 -7 53 -9 86
-2 34 -7 67 -11 73 -4 6 -5 11 -3 11 2 0 0 21 -5 48 -4 26 -10 58 -12 72 -3
14 -7 39 -10 56 -3 17 -17 75 -31 129 -14 54 -23 105 -21 112 3 8 2 12 -3 9
-9 -6 -40 88 -43 131 -1 7 -8 15 -15 17 -8 3 -12 10 -9 15 5 8 -20 75 -70 186
-10 22 -18 42 -19 45 0 3 -22 47 -48 98 -26 50 -45 92 -42 92 3 0 -2 8 -10 18
-8 9 -15 21 -15 25 1 4 -6 15 -15 23 -8 9 -13 20 -10 25 4 5 0 9 -7 9 -7 0
-19 13 -26 29 -11 25 -63 108 -84 136 -59 75 -76 100 -72 107 3 5 1 7 -4 6 -6
-2 -11 2 -12 7 -1 6 -14 21 -29 35 -42 41 -81 97 -73 105 4 5 2 5 -5 1 -6 -3
-18 3 -26 14 -7 11 -17 17 -20 13 -4 -3 -7 1 -7 9 0 9 -7 19 -16 22 -8 3 -12
10 -9 16 3 5 2 10 -3 10 -14 0 -117 101 -114 112 1 5 -1 7 -6 4 -4 -3 -21 8
-36 25 -15 16 -32 29 -37 29 -6 0 -7 5 -4 10 4 6 3 10 -2 9 -21 -4 -33 2 -33
16 0 8 -4 14 -8 12 -5 -1 -29 15 -53 35 -24 21 -49 42 -56 48 -7 5 -16 10 -21
10 -5 0 -17 9 -27 20 -10 11 -25 20 -33 20 -9 0 -12 6 -8 16 3 8 2 13 -3 9
-10 -6 -71 26 -71 38 0 4 -9 7 -21 7 -14 0 -19 5 -16 14 4 9 1 13 -6 10 -7 -2
-37 12 -67 31 -30 19 -60 35 -67 35 -6 0 -16 6 -20 14 -4 8 -10 15 -13 14 -24
0 -62 18 -71 33 -5 11 -15 17 -21 13 -10 -7 -110 35 -116 49 -2 4 -8 5 -13 1
-5 -3 -9 0 -9 5 0 6 -3 10 -7 9 -15 -4 -113 34 -113 43 0 6 -4 8 -8 5 -14 -8
-82 16 -75 27 3 6 1 7 -6 3 -6 -4 -37 0 -69 10 -31 9 -63 17 -69 17 -7 0 -13
3 -13 7 0 3 -14 7 -32 8 -17 2 -37 7 -43 12 -7 5 -15 7 -18 3 -4 -3 -13 -1
-20 5 -8 7 -17 9 -20 5 -4 -3 -7 -2 -7 3 0 5 -15 10 -32 10 -18 1 -46 4 -63 8
-16 3 -46 8 -65 10 -19 3 -37 5 -40 6 -3 1 -13 1 -24 0 -13 -1 -16 2 -10 12 6
10 5 11 -7 1 -8 -7 -20 -8 -28 -4 -7 5 -22 6 -32 4 -10 -3 -19 -1 -19 3 0 20
-606 18 -715 -2 -22 -4 -44 -7 -49 -6 -12 4 -255 -38 -281 -48 -12 -4 -38 -11
-57 -14 -19 -3 -48 -10 -63 -16 -16 -6 -32 -7 -36 -3 -4 4 -71 152 -149 328
-78 176 -147 329 -153 340 -6 11 -12 26 -13 33 -1 7 -9 24 -18 37 -9 13 -16
29 -16 34 0 5 -14 40 -32 78 -17 37 -32 70 -32 73 -5 26 -50 120 -58 120 -5 0
-7 4 -4 9 5 8 -99 261 -112 271 -4 3 -8 12 -10 20 -5 27 -45 120 -52 120 -3 0
-6 8 -7 18 -1 9 -43 112 -93 227 -50 116 -116 269 -147 340 -30 72 -58 132
-62 135 -3 3 -7 12 -9 20 -3 16 -60 153 -97 235 -48 104 -75 166 -75 170 0 2
-12 30 -26 62 -15 32 -28 63 -29 68 -2 6 -15 37 -30 70 -16 33 -29 66 -31 74
-1 8 -29 66 -60 130 -50 100 -69 127 -140 199 -46 46 -88 81 -94 77 -5 -3 -10
-2 -10 3 0 8 -53 36 -70 37 -3 0 -10 3 -16 7 -10 7 -55 14 -129 22 -16 2 -57
0 -90 -5z m81 -1876 c1 -17 318 -875 332 -897 3 -6 7 -16 8 -22 1 -7 25 -74
54 -150 28 -77 65 -177 83 -224 17 -47 36 -88 41 -92 6 -4 8 -8 4 -8 -11 0 23
-90 34 -90 5 0 7 -4 4 -9 -3 -5 12 -57 34 -115 22 -58 40 -111 40 -116 0 -7
-233 -10 -661 -10 -625 0 -661 1 -656 18 4 14 267 688 414 1062 36 90 207 528
254 648 10 27 15 28 15 5z m2899 -2268 c233 -28 481 -110 680 -223 55 -31 103
-56 108 -54 4 1 7 -2 7 -7 0 -4 17 -20 38 -33 237 -157 477 -439 620 -729 59
-119 140 -326 149 -381 3 -21 10 -38 15 -38 5 0 7 -4 4 -9 -3 -4 -1 -23 5 -42
13 -44 28 -122 35 -179 3 -24 7 -47 10 -51 2 -4 7 -40 10 -81 2 -40 6 -88 8
-105 1 -18 -3 -33 -8 -33 -8 0 -8 -3 0 -8 11 -8 12 -183 0 -297 -15 -145 -18
-159 -34 -173 -9 -7 -11 -10 -4 -7 10 5 13 0 10 -21 -2 -19 -8 -28 -17 -26
-11 2 -12 0 -3 -11 10 -11 10 -26 0 -66 -6 -28 -15 -51 -20 -51 -5 0 -6 -5 -3
-10 10 -16 -5 -51 -18 -43 -7 4 -6 -1 2 -10 9 -12 10 -21 3 -29 -5 -7 -13 -28
-17 -45 -3 -18 -11 -33 -16 -33 -6 0 -8 -4 -5 -9 3 -5 -2 -30 -11 -55 -12 -32
-22 -45 -32 -41 -11 4 -11 2 -2 -9 9 -10 9 -20 0 -40 -7 -14 -16 -26 -21 -26
-4 0 -7 -3 -6 -7 4 -15 -21 -73 -32 -73 -6 0 -9 -4 -6 -9 7 -11 -34 -91 -46
-91 -5 0 -7 -4 -3 -10 3 -5 -2 -18 -12 -28 -10 -10 -19 -24 -21 -31 -4 -20
-74 -121 -84 -121 -5 0 -6 -4 -3 -10 3 -5 2 -10 -4 -10 -5 0 -13 -9 -16 -21
-4 -13 -12 -18 -21 -15 -9 3 -12 1 -9 -5 8 -12 -14 -41 -26 -33 -5 3 -6 -1 -3
-9 6 -18 -190 -222 -205 -213 -6 4 -10 3 -9 -2 4 -15 -52 -63 -64 -56 -6 4 -8
2 -5 -3 4 -6 -12 -23 -35 -39 -24 -16 -51 -36 -61 -44 -10 -8 -20 -13 -24 -12
-3 2 -9 -2 -14 -9 -6 -10 -11 -10 -26 2 -16 13 -17 12 -5 -2 10 -14 9 -19 -10
-31 -13 -8 -33 -18 -45 -22 -13 -4 -23 -12 -23 -18 0 -6 -9 -8 -20 -5 -11 3
-18 1 -15 -3 7 -12 -103 -62 -118 -54 -6 4 -9 3 -4 -1 10 -12 -71 -48 -91 -40
-9 3 -13 3 -9 -1 4 -4 -5 -13 -19 -21 -20 -10 -30 -10 -41 -2 -11 10 -12 8 -7
-7 4 -10 4 -16 0 -13 -4 4 -28 1 -53 -7 -25 -8 -49 -11 -54 -8 -5 3 -9 1 -9
-3 0 -5 -20 -13 -45 -19 -32 -7 -45 -7 -45 0 0 7 -3 7 -8 -1 -4 -6 -29 -14
-57 -18 -27 -4 -61 -9 -75 -11 -22 -4 -250 -17 -275 -16 -149 6 -240 14 -246
23 -4 7 -9 8 -13 1 -4 -7 -81 2 -133 17 -2 1 -8 1 -14 1 -5 0 -7 6 -3 13 5 9
4 9 -6 0 -9 -8 -20 -9 -38 -2 -13 5 -27 8 -29 5 -3 -2 -21 3 -41 11 -20 9 -50
18 -67 20 -16 3 -33 9 -36 15 -3 5 -9 9 -13 9 -25 -4 -36 0 -30 11 4 6 3 8 -3
5 -16 -10 -104 23 -96 35 3 7 1 8 -5 4 -12 -7 -72 20 -84 38 -4 6 -8 7 -8 3 0
-9 -102 46 -147 79 -17 13 -36 24 -42 24 -6 0 -11 5 -11 10 0 6 -7 10 -15 10
-8 0 -15 5 -15 10 0 6 -5 10 -11 10 -7 0 -20 10 -30 22 -11 11 -19 19 -19 15
0 -8 -64 48 -162 143 -48 46 -88 89 -88 95 0 5 -11 19 -25 29 -14 11 -23 26
-21 33 3 8 2 11 -3 8 -12 -7 -42 35 -34 48 3 6 2 7 -4 4 -6 -4 -23 17 -39 46
-37 67 -39 71 -24 62 8 -5 11 -4 6 3 -4 6 -13 9 -21 5 -10 -3 -15 1 -15 13 0
11 -9 30 -20 44 -11 14 -20 30 -20 36 0 5 -6 16 -12 22 -7 7 -13 16 -14 20 0
9 -68 153 -95 204 -11 21 -17 38 -13 38 4 0 0 8 -9 18 -13 15 -14 21 -4 32 7
8 8 11 1 7 -14 -8 -27 20 -17 35 3 7 1 8 -5 4 -7 -4 -13 -1 -13 8 -2 24 -4 30
-11 41 -14 23 -49 158 -44 171 3 8 2 14 -3 14 -5 0 -12 21 -16 48 -4 26 -10
61 -13 77 -3 17 -5 55 -6 87 -1 31 -5 54 -9 51 -4 -2 -6 32 -5 76 2 45 1 81
-2 81 -11 0 -7 55 4 62 8 5 8 8 0 8 -6 0 -10 20 -10 44 0 25 3 43 6 41 4 -2 4
16 0 40 -4 25 -5 47 -2 49 2 3 6 33 8 68 5 73 10 113 25 185 6 29 8 57 5 62
-4 5 -3 11 1 13 5 1 19 46 32 98 13 52 40 142 62 199 21 58 35 110 32 115 -4
6 -3 8 2 4 10 -10 77 131 68 144 -3 6 -1 8 4 5 9 -6 37 42 34 58 -1 3 7 13 17
24 9 10 37 51 62 91 l45 72 19 -43 c10 -24 21 -46 25 -49 3 -3 7 -13 9 -22 2
-15 61 -154 112 -263 10 -22 35 -80 56 -130 21 -49 43 -93 48 -97 6 -4 8 -8 4
-8 -4 0 12 -44 36 -97 23 -54 58 -135 76 -180 19 -46 38 -83 42 -83 5 0 7 -4
4 -9 -6 -10 68 -192 104 -256 31 -55 111 -155 159 -198 47 -42 143 -107 162
-111 8 -1 24 -8 37 -15 34 -18 149 -41 212 -41 138 0 312 68 405 157 56 54
102 111 107 133 2 8 8 20 15 27 17 18 53 119 60 167 3 23 6 79 6 126 1 88 -25
196 -63 270 -10 19 -48 107 -85 195 -37 88 -73 169 -79 180 -5 11 -10 22 -11
25 -1 11 -68 175 -74 180 -3 3 -7 12 -9 20 -2 8 -15 40 -29 70 -15 30 -27 57
-27 60 -7 26 -40 100 -46 100 -4 0 -7 7 -7 15 0 14 -33 96 -43 105 -3 3 -6 12
-8 20 -7 30 -185 435 -194 441 -6 4 -7 9 -1 12 12 8 98 28 143 34 19 2 41 6
49 9 8 3 55 7 105 11 50 3 93 8 96 11 5 4 319 -6 375 -13z"/>
<path d="M7635 2740 c-3 -5 -1 -10 4 -10 6 0 11 5 11 10 0 6 -2 10 -4 10 -3 0
-8 -4 -11 -10z"/>
<path d="M7610 2686 c0 -2 7 -7 16 -10 8 -3 12 -2 9 4 -6 10 -25 14 -25 6z"/>
<path d="M7593 2511 c0 -11 5 -18 9 -15 4 3 5 11 1 19 -7 21 -12 19 -10 -4z"/>
<path d="M7510 2240 c0 -5 5 -10 11 -10 5 0 7 5 4 10 -3 6 -8 10 -11 10 -2 0
-4 -4 -4 -10z"/>
<path d="M6695 1249 c-4 -6 -5 -12 -2 -15 2 -3 7 2 10 11 7 17 1 20 -8 4z"/>
<path d="M5000 1120 c-9 -6 -10 -10 -3 -10 6 0 15 5 18 10 8 12 4 12 -15 0z"/>
<path d="M5556 1002 c-3 -5 1 -9 9 -9 8 0 12 4 9 9 -3 4 -7 8 -9 8 -2 0 -6 -4
-9 -8z"/>
</g>
</svg>
